<?xml version="1.0" encoding="UTF-8" standalone="no"?>
<!-- Created with Inkscape (http://www.inkscape.org/) -->

<svg
   xmlns:dc="http://purl.org/dc/elements/1.1/"
   xmlns:cc="http://creativecommons.org/ns#"
   xmlns:rdf="http://www.w3.org/1999/02/22-rdf-syntax-ns#"
   xmlns:svg="http://www.w3.org/2000/svg"
   xmlns="http://www.w3.org/2000/svg"
   xmlns:sodipodi="http://sodipodi.sourceforge.net/DTD/sodipodi-0.dtd"
   xmlns:inkscape="http://www.inkscape.org/namespaces/inkscape"
   width="250px"
   height="160px"
   viewBox="0 0 250 160"
   version="1.1"
   id="SVGRoot"
   inkscape:version="0.92.3 (unknown)"
   sodipodi:docname="logo.svg">
  <sodipodi:namedview
     id="base"
     pagecolor="#ffffff"
     bordercolor="#666666"
     borderopacity="1.0"
     inkscape:pageopacity="0.0"
     inkscape:pageshadow="2"
     inkscape:zoom="2.1496046"
     inkscape:cx="125"
     inkscape:cy="80"
     inkscape:document-units="px"
     inkscape:current-layer="layer1"
     showgrid="false"
     inkscape:window-width="1299"
     inkscape:window-height="713"
     inkscape:window-x="67"
     inkscape:window-y="27"
     inkscape:window-maximized="1" />
  <defs
     id="defs1958" />
  <metadata
     id="metadata1961">
    <rdf:RDF>
      <cc:Work
         rdf:about="">
        <dc:format>image/svg+xml</dc:format>
        <dc:type
           rdf:resource="http://purl.org/dc/dcmitype/StillImage" />
        <dc:title></dc:title>
      </cc:Work>
    </rdf:RDF>
  </metadata>
  <g
     id="layer1"
     inkscape:groupmode="layer"
     inkscape:label="Layer 1">
    <path
       style="opacity:1;fill:#ff7a57;fill-opacity:1;stroke:#000000;stroke-width:1;stroke-opacity:0"
       d="M 16.865501,115.54139 4.6482133,101.74499 40.86254,60.854289 77.076872,19.963607 89.351186,33.821055 101.6255,47.678501 65.465229,88.508156 C 45.577077,110.96445 29.254969,129.3378 29.193877,129.3378 c -0.06109,0 -5.608855,-6.20839 -12.328376,-13.79641 z"
       id="path1910"
       inkscape:connector-curvature="0" />
    <g
       id="g182"
       transform="matrix(1.8597339,0,0,-2.0998516,115.50611,114.13586)"
       style="stroke-width:0.6747129">
      <path
         style="opacity:1;fill:#ff7a57;fill-opacity:1;stroke:#000000;stroke-width:0.6747129;stroke-opacity:0"
         d="m 532.11488,500.58551 v -17.58846 l 12.11415,-12.18183 12.11414,-12.18183 8.82782,8.73115 8.82782,8.73115 -20.80655,20.98653 c -11.44361,11.54259 -20.86749,21.0102 -20.94197,21.03914 -0.0748,0.0291 -0.13541,-7.8168 -0.13541,-17.53585 z"
         id="path1916"
         inkscape:connector-curvature="0"
         transform="matrix(0.75000002,0,0,-0.75000002,-399.0923,388.82912)" />
    </g>
    <g
       id="g186"
       transform="matrix(1.8597339,0,0,-2.0998516,77.053693,91.082641)"
       style="stroke-width:0.6747129">
      <path
         style="opacity:1;fill:#ff7a57;fill-opacity:1;stroke:#000000;stroke-width:0.6747129;stroke-opacity:0"
         d="m 513.37096,529.31424 -8.72007,-8.72113 v -8.36547 -8.36548 l 8.76007,-8.759 8.76006,-8.759 v 25.84561 c 0,14.21509 -0.018,25.84561 -0.04,25.84561 -0.022,0 -3.96403,-3.92451 -8.76007,-8.72114 z"
         id="path1914"
         inkscape:connector-curvature="0"
         transform="matrix(0.75000002,0,0,-0.75000002,-378.416,377.85062)" />
    </g>
    <g
       id="g194"
       transform="matrix(1.8597339,0,0,-2.0998516,149.2337,91.082641)"
       style="stroke-width:0.6747129">
      <path
         style="opacity:1;fill:#ff7a57;fill-opacity:1;stroke:#000000;stroke-width:0.6747129;stroke-opacity:0"
         d="m 565.14217,529.31424 -8.72008,-8.72113 v -8.36547 -8.36548 l 8.76007,-8.759 8.76006,-8.759 v 25.84561 c 0,14.21509 -0.018,25.84561 -0.04,25.84561 -0.022,0 -3.96402,-3.92451 -8.76006,-8.72114 z"
         id="path1918"
         inkscape:connector-curvature="0"
         transform="matrix(0.75000002,0,0,-0.75000002,-417.228,377.85062)" />
    </g>
    <path
       style="opacity:1;fill:#ff7a57;fill-opacity:1;stroke:#000000;stroke-width:1;stroke-opacity:0"
       d="m 187.7052,90.320223 c 0,-12.949698 -0.064,-25.380515 -0.14227,-27.624023 l -0.14227,-4.079104 16.91238,-19.264874 c 9.30181,-10.595679 16.96939,-19.286688 17.03909,-19.313367 0.0697,-0.02662 5.66084,6.130712 12.42477,13.683092 l 12.29806,13.731581 -16.02917,18.259308 c -8.81604,10.042625 -21.95374,24.985235 -29.19489,33.205808 l -13.1657,14.946496 z"
       id="path1920"
       inkscape:connector-curvature="0" />
  </g>
</svg>
