<?xml version="1.0" encoding="UTF-8" standalone="no"?>
<!-- Created with Inkscape (http://www.inkscape.org/) -->

<svg
   xmlns:dc="http://purl.org/dc/elements/1.1/"
   xmlns:cc="http://creativecommons.org/ns#"
   xmlns:rdf="http://www.w3.org/1999/02/22-rdf-syntax-ns#"
   xmlns:svg="http://www.w3.org/2000/svg"
   xmlns="http://www.w3.org/2000/svg"
   xmlns:sodipodi="http://sodipodi.sourceforge.net/DTD/sodipodi-0.dtd"
   xmlns:inkscape="http://www.inkscape.org/namespaces/inkscape"
   width="250px"
   height="250px"
   viewBox="0 0 250 250"
   version="1.1"
   id="SVGRoot"
   inkscape:version="0.92.3 (unknown)"
   sodipodi:docname="man.svg">
  <sodipodi:namedview
     id="base"
     pagecolor="#ffffff"
     bordercolor="#666666"
     borderopacity="1.0"
     inkscape:pageopacity="0.0"
     inkscape:pageshadow="2"
     inkscape:zoom="2.0149341"
     inkscape:cx="125"
     inkscape:cy="125"
     inkscape:document-units="px"
     inkscape:current-layer="layer1"
     showgrid="false"
     inkscape:window-width="1299"
     inkscape:window-height="713"
     inkscape:window-x="67"
     inkscape:window-y="27"
     inkscape:window-maximized="1" />
  <defs
     id="defs8195">
    <clipPath
       clipPathUnits="userSpaceOnUse"
       id="clipPath1278-3-2">
      <path
         d="m 300.106,205.498 h 0.048 v -0.05 h -0.048 z"
         id="path1276-6-8"
         inkscape:connector-curvature="0" />
    </clipPath>
    <clipPath
       clipPathUnits="userSpaceOnUse"
       id="clipPath1262-7-9">
      <path
         d="m 301.694,197.486 h 0.94 v -0.973 h -0.94 z"
         id="path1260-5-7"
         inkscape:connector-curvature="0" />
    </clipPath>
    <clipPath
       clipPathUnits="userSpaceOnUse"
       id="clipPath1246-3-3">
      <path
         d="m 296.904,202.278 h 1.03 v -1.066 h -1.03 z"
         id="path1244-5-6"
         inkscape:connector-curvature="0" />
    </clipPath>
    <clipPath
       clipPathUnits="userSpaceOnUse"
       id="clipPath1230-6-1">
      <path
         d="m 281.668,295.471 h 0.996 v -1.031 h -0.996 z"
         id="path1228-2-2"
         inkscape:connector-curvature="0" />
    </clipPath>
    <clipPath
       clipPathUnits="userSpaceOnUse"
       id="clipPath1214-9-9">
      <path
         d="m 284.052,290.036 h 0.973 v -1.007 h -0.973 z"
         id="path1212-1-3"
         inkscape:connector-curvature="0" />
    </clipPath>
    <clipPath
       clipPathUnits="userSpaceOnUse"
       id="clipPath1118-0-1">
      <path
         d="m 208.415,269.752 h 1.076 v -1.113 h -1.076 z"
         id="path1116-9-9"
         inkscape:connector-curvature="0" />
    </clipPath>
    <clipPath
       clipPathUnits="userSpaceOnUse"
       id="clipPath1102-3-4">
      <path
         d="m 212.968,275.172 h 1.601 v -1.106 h -1.601 z"
         id="path1100-6-7"
         inkscape:connector-curvature="0" />
    </clipPath>
  </defs>
  <metadata
     id="metadata8198">
    <rdf:RDF>
      <cc:Work
         rdf:about="">
        <dc:format>image/svg+xml</dc:format>
        <dc:type
           rdf:resource="http://purl.org/dc/dcmitype/StillImage" />
        <dc:title></dc:title>
      </cc:Work>
    </rdf:RDF>
  </metadata>
  <g
     id="layer1"
     inkscape:groupmode="layer"
     inkscape:label="Layer 1">
    <g
       id="g210"
       transform="matrix(1.4182543,0,0,-1.540036,109.12019,180.86132)"
       style="stroke-width:0.90218633">
      <path
         d="m 0,0 c 0,0 -36.339,0.771 -57.783,52.608 l -6.375,-1.182 c 0,0 7.132,-61.17 60.497,-78.633 z"
         style="fill:#ffccc3;fill-opacity:1;fill-rule:nonzero;stroke:none;stroke-width:0.90218633"
         id="path212"
         inkscape:connector-curvature="0" />
    </g>
    <g
       id="g214"
       transform="matrix(1.4182543,0,0,-1.540036,34.424433,101.06744)"
       style="stroke-width:0.90218633">
      <path
         d="m 0,0 c -3.952,-2.199 -8.847,4.387 -5.875,7.414 3.562,3.465 3.554,-3.004 6.459,-1.49 2.904,1.513 0.169,6.497 -1.973,7.288 -3.389,1.239 -3.837,1.056 -6.142,-1.02 -0.46,5.928 -2.863,14.119 -5.046,10.878 -1.693,-2.514 0.85,-9.322 1.554,-12.369 -0.714,1.209 -4.09,9.002 -6.204,6.793 -1.362,-1.743 3.161,-10.125 3.874,-11.335 0.01,-0.014 0.018,-0.032 0.028,-0.047 -0.583,0.436 -1.062,0.772 -1.313,0.948 -1.671,0.957 -5.269,4.329 -5.441,1.044 -0.099,-3.323 5.714,-6.64 8.589,-8.491 0.386,-1.368 0.963,-2.533 2.091,-3.105 3.381,2.598 4.056,-0.287 7.389,-1.202 2.846,-1 5.16,0.075 5.999,2.893 C 5.524,4.645 -2.626,6.38 0,0"
         style="fill:#ffccc3;fill-opacity:1;fill-rule:nonzero;stroke:none;stroke-width:0.90218633"
         id="path216"
         inkscape:connector-curvature="0" />
    </g>
    <g
       id="g218"
       transform="matrix(1.4182543,0,0,-1.540036,196.73838,155.22666)"
       style="stroke-width:0.90218633">
      <path
         d="m 0,0 c 2.281,-0.742 19.464,-31.809 29.11,-61.647 l -105.563,0.955 c 0,0 4.356,30.472 17.969,54.331 z"
         style="fill:#ffffff;fill-opacity:1;fill-rule:nonzero;stroke:none;stroke-width:0.90218633"
         id="path220"
         inkscape:connector-curvature="0" />
    </g>
    <g
       id="g222"
       transform="matrix(1.4182543,0,0,-1.540036,216.98439,193.72448)"
       style="stroke-width:0.90218633">
      <path
         d="M 0,0 C -0.68,1.423 -1.352,2.803 -2.015,4.14 -14.429,4.129 -26.835,4.024 -39.258,4.455 -52.313,4.908 -65.445,6.455 -78.528,7 -79.07,5.744 -79.587,4.488 -80.087,3.233 -67.04,1.213 -53.453,0.94 -40.434,0.384 -27.023,-0.189 -13.462,-0.528 0,0"
         style="fill:#00cef1;fill-opacity:1;fill-rule:nonzero;stroke:none;stroke-width:0.90218633"
         id="path224"
         inkscape:connector-curvature="0" />
    </g>
    <g
       id="g226"
       transform="matrix(1.4182543,0,0,-1.540036,227.21695,218.60576)"
       style="stroke-width:0.90218633">
      <path
         d="m 0,0 c -0.467,1.122 -0.937,2.234 -1.408,3.336 -14.991,0.012 -29.983,0.34 -44.96,1.02 -9.994,0.456 -19.982,1.066 -29.96,1.779 -4.842,0.345 -10.027,1.12 -15.171,1.432 -0.353,-1.125 -0.689,-2.23 -1.01,-3.319 C -61.645,2.079 -30.949,0.104 0,0"
         style="fill:#00cef1;fill-opacity:1;fill-rule:nonzero;stroke:none;stroke-width:0.90218633"
         id="path228"
         inkscape:connector-curvature="0" />
    </g>
    <g
       id="g230"
       transform="matrix(1.4182543,0,0,-1.540036,164.3609,231.20727)"
       style="stroke-width:0.90218633">
      <path
         d="m 0,0 c -17.133,-0.427 -34.492,-0.235 -51.685,-1.171 -0.269,-1.221 -0.508,-2.356 -0.717,-3.391 17.456,-0.121 35.028,0.953 52.402,1.38 16.169,0.398 32.349,0.88 48.521,0.687 -0.392,1.057 -0.79,2.11 -1.194,3.16 C 31.554,0.874 15.774,0.393 0,0"
         style="fill:#00cef1;fill-opacity:1;fill-rule:nonzero;stroke:none;stroke-width:0.90218633"
         id="path232"
         inkscape:connector-curvature="0" />
    </g>
    <g
       id="g234"
       transform="matrix(1.4182543,0,0,-1.540036,205.63566,13.6673)"
       style="stroke-width:0.90218633">
      <path
         d="m 0,0 c 2.29,2.5 6.454,3.413 9.174,1.389 1.763,-1.312 2.691,-3.582 4.595,-4.681 1.63,-0.94 3.665,-0.838 5.409,-1.545 2.487,-1.009 4.133,-3.885 3.537,-6.501 -0.426,-1.87 -1.863,-3.404 -3.57,-4.278 -1.708,-0.874 -3.663,-1.154 -5.581,-1.175 -5.016,-0.054 -9.523,2.327 -13.495,5.382 C -3.715,-8.498 -3.078,-3.359 0,0"
         style="fill:#004b7f;fill-opacity:1;fill-rule:nonzero;stroke:none;stroke-width:0.90218633"
         id="path236"
         inkscape:connector-curvature="0" />
    </g>
    <g
       id="g238"
       transform="matrix(1.4182543,0,0,-1.540036,196.73838,26.244019)"
       style="stroke-width:0.90218633">
      <path
         d="m 0,0 c 0,0 2.717,3.68 4.383,3.054 1.665,-0.625 5.6,-7.7 5.6,-8.591 0,-1.837 -3.64,-3.088 -3.64,-3.088 z"
         style="fill:#00cef1;fill-opacity:1;fill-rule:nonzero;stroke:none;stroke-width:0.90218633"
         id="path240"
         inkscape:connector-curvature="0" />
    </g>
    <g
       id="g242"
       transform="matrix(1.4182543,0,0,-1.540036,122.17677,93.967253)"
       style="stroke-width:0.90218633">
      <path
         d="M 0,0 C 0,0 -12.707,11.453 -17.225,6.935 -21.744,2.416 -12.792,-6.622 0,-3.071 Z"
         style="fill:#ffccc3;fill-opacity:1;fill-rule:nonzero;stroke:none;stroke-width:0.90218633"
         id="path244"
         inkscape:connector-curvature="0" />
    </g>
    <g
       id="g246"
       transform="matrix(1.4182543,0,0,-1.540036,115.1001,60.242148)"
       style="stroke-width:0.90218633">
      <path
         d="m 0,0 c 0,0 2.229,25.059 38.452,28.286 36.223,3.228 36.546,-48.13 36.546,-48.13 0,0 -0.969,-21.265 -15.493,-22.556 L 32.393,-4.09 Z"
         style="fill:#004b7f;fill-opacity:1;fill-rule:nonzero;stroke:none;stroke-width:0.90218633"
         id="path248"
         inkscape:connector-curvature="0" />
    </g>
    <g
       id="g250"
       transform="matrix(1.4182543,0,0,-1.540036,111.27183,103.25644)"
       style="stroke-width:0.90218633">
      <path
         d="M 0,0 C 0,0 -6.879,46.736 29.862,44.384 66.604,42.033 66.604,8.958 66.604,8.958 66.604,8.958 38.624,-29.1 0,0"
         style="fill:#ffccc3;fill-opacity:1;fill-rule:nonzero;stroke:none;stroke-width:0.90218633"
         id="path252"
         inkscape:connector-curvature="0" />
    </g>
    <g
       id="g254"
       transform="matrix(1.4182543,0,0,-1.540036,205.73395,93.967253)"
       style="stroke-width:0.90218633">
      <path
         d="M 0,0 C 0,0 12.706,11.453 17.225,6.935 21.744,2.416 12.792,-6.622 0,-3.071 Z"
         style="fill:#ffccc3;fill-opacity:1;fill-rule:nonzero;stroke:none;stroke-width:0.90218633"
         id="path256"
         inkscape:connector-curvature="0" />
    </g>
    <g
       id="g258"
       transform="matrix(1.4182543,0,0,-1.540036,111.27183,103.25644)"
       style="stroke-width:0.90218633">
      <path
         d="m 0,0 c 0,0 10.293,-8.404 21.877,-5.137 11.584,3.268 23.814,-11.016 44.727,14.095 h 3.63 c 0,0 1.643,-69.339 -35.683,-78.844 -37.326,-9.504 -70.294,8.317 -43.86,44.849 0,0 9.512,10.027 9.309,25.037"
         style="fill:#004b7f;fill-opacity:1;fill-rule:nonzero;stroke:none;stroke-width:0.90218633"
         id="path260"
         inkscape:connector-curvature="0" />
    </g>
    <g
       id="g262"
       transform="matrix(1.4182543,0,0,-1.540036,126.41011,42.567162)"
       style="stroke-width:0.90218633">
      <path
         d="m 0,0 c 2.107,1.059 4.648,0.845 6.895,0.129 2.247,-0.715 4.317,-1.893 6.513,-2.75 4.55,-1.775 9.641,-2.131 14.393,-1.007 3.139,0.743 6.197,2.121 9.423,2.04 2.831,-0.07 5.498,-1.261 8.077,-2.431 2.889,-1.311 5.779,-2.622 8.67,-3.933 C 49.182,-0.735 41.941,4.824 33.732,7.586 25.522,10.348 16.396,10.296 8.218,7.441 4.81,6.252 1.437,4.481 -0.649,1.537"
         style="fill:#004b7f;fill-opacity:1;fill-rule:nonzero;stroke:none;stroke-width:0.90218633"
         id="path264"
         inkscape:connector-curvature="0" />
    </g>
    <g
       id="g266"
       transform="matrix(1.4182543,0,0,-1.540036,148.42909,110.61674)"
       style="stroke-width:0.90218633">
      <path
         d="m 0,0 v 17.596 l -4.521,-9.608 -1.798,-5.373 0.272,-4.794 1.798,-1.362 2.233,1.035 z"
         style="fill:#ffccc3;fill-opacity:1;fill-rule:nonzero;stroke:none;stroke-width:0.90218633"
         id="path268"
         inkscape:connector-curvature="0" />
    </g>
    <g
       id="g270"
       transform="matrix(1.4182543,0,0,-1.540036,150.35975,80.494244)"
       style="stroke-width:0.90218633">
      <path
         d="m 0,0 c -1.422,-2.926 -2.799,-5.874 -3.982,-8.891 -0.87,-2.218 -2.144,-4.264 -2.851,-6.549 -0.656,-2.121 -1.066,-5.372 1.243,-6.669 0.123,-0.069 0.259,-0.131 0.4,-0.116 0.128,0.015 0.925,0.356 1.029,0.432 0.944,0.688 1.594,1.639 2.446,2.422 0.228,0.21 0.634,0.392 0.801,0.131 0.1,-0.156 0.022,-0.359 -0.062,-0.524 -0.603,-1.179 -1.461,-2.228 -2.499,-3.051 -0.717,-0.569 -1.607,-1.049 -2.51,-0.898 -0.887,0.148 -1.582,0.89 -1.926,1.721 -1.28,3.099 0.26,6.619 1.276,9.55 1.531,4.421 3.713,8.621 5.852,12.81 C -0.534,0.855 0.238,0.489 0,0"
         style="fill:#d46c6c;fill-opacity:1;fill-rule:nonzero;stroke:none;stroke-width:0.90218633"
         id="path272"
         inkscape:connector-curvature="0" />
    </g>
    <g
       id="g274"
       transform="matrix(1.4182543,0,0,-1.540036,166.46332,85.412811)"
       style="stroke-width:0.90218633">
      <path
         d="m 0,0 c 0.318,-0.858 -0.181,-1.794 -1.115,-2.09 -0.934,-0.296 -1.459,0.316 -1.779,1.174 -0.318,0.858 0.115,1.773 1.048,2.069 C -0.911,1.449 -0.318,0.858 0,0"
         style="fill:#303030;fill-opacity:1;fill-rule:nonzero;stroke:none;stroke-width:0.90218633"
         id="path276"
         inkscape:connector-curvature="0" />
    </g>
    <g
       id="g278"
       transform="matrix(1.4182543,0,0,-1.540036,137.60795,87.646945)"
       style="stroke-width:0.90218633">
      <path
         d="m 0,0 c -0.633,-0.671 -1.75,-0.707 -2.494,-0.08 -0.745,0.627 -0.444,1.35 0.189,2.021 0.633,0.671 1.696,0.752 2.441,0.125 C 0.88,1.439 0.633,0.671 0,0"
         style="fill:#303030;fill-opacity:1;fill-rule:nonzero;stroke:none;stroke-width:0.90218633"
         id="path280"
         inkscape:connector-curvature="0" />
    </g>
    <g
       id="g282"
       transform="matrix(1.4182543,0,0,-1.540036,172.16258,77.550311)"
       style="stroke-width:0.90218633">
      <path
         d="M 0,0 C -1.124,0.368 -2.122,0.807 -3.165,1.354 -4.142,1.867 -5.39,2.259 -5.566,3.431 -5.64,3.917 -5.501,4.58 -4.944,4.78 -3.613,5.259 -2.834,4.613 -1.718,3.937 -0.666,3.299 0.268,2.64 1.19,1.838 2.082,1.064 1.09,-0.356 0,0"
         style="fill:#004b7f;fill-opacity:1;fill-rule:nonzero;stroke:none;stroke-width:0.90218633"
         id="path284"
         inkscape:connector-curvature="0" />
    </g>
    <g
       id="g286"
       transform="matrix(1.4182543,0,0,-1.540036,134.85171,70.614914)"
       style="stroke-width:0.90218633">
      <path
         d="M 0,0 C 1.539,0.388 3.152,0.658 4.74,0.452 6.31,0.247 6.351,-2.319 4.759,-2.556 3.167,-2.792 1.557,-2.566 0.014,-2.206 -1.13,-1.937 -1.168,-0.295 0,0"
         style="fill:#004b7f;fill-opacity:1;fill-rule:nonzero;stroke:none;stroke-width:0.90218633"
         id="path288"
         inkscape:connector-curvature="0" />
    </g>
    <g
       id="g290"
       transform="matrix(1.4182543,0,0,-1.540036,155.40122,133.58346)"
       style="stroke-width:0.90218633">
      <path
         d="M 0,0 C 1.978,1.114 3.397,3.165 3.454,5.332 3.463,5.653 3.441,5.981 3.316,6.28 2.934,7.199 1.701,7.539 0.662,7.392 -0.376,7.245 -1.323,6.748 -2.334,6.475 -3.519,6.157 -4.793,6.156 -5.972,6.474 -6.666,6.661 -7.328,6.956 -8.04,7.076 -8.751,7.195 -9.559,7.106 -10.077,6.624 -10.581,6.154 -10.697,5.428 -10.671,4.762 -10.468,-0.641 -4.455,-2.51 0,0"
         style="fill:#a04340;fill-opacity:1;fill-rule:nonzero;stroke:none;stroke-width:0.90218633"
         id="path292"
         inkscape:connector-curvature="0" />
    </g>
    <g
       id="g294"
       transform="matrix(1.4182543,0,0,-1.540036,174.09197,100.63283)"
       style="stroke-width:0.90218633">
      <path
         d="m 0,0 c -0.17,-1.072 -2.102,-1.654 -4.313,-1.301 -2.213,0.353 -3.87,1.509 -3.7,2.581 0.171,1.072 3.104,1.494 5.317,1.14 C -0.483,2.067 0.171,1.072 0,0"
         style="fill:#ffb0a0;fill-opacity:1;fill-rule:nonzero;stroke:none;stroke-width:0.90218633"
         id="path296"
         inkscape:connector-curvature="0" />
    </g>
    <g
       id="g298"
       transform="matrix(1.4182543,0,0,-1.540036,123.27095,98.958194)"
       style="stroke-width:0.90218633">
      <path
         d="M 0,0 C 0.155,1.075 2.079,1.684 4.296,1.362 6.513,1.039 8.185,-0.093 8.03,-1.168 7.875,-2.242 4.948,-2.706 2.73,-2.383 0.513,-2.061 -0.155,-1.074 0,0"
         style="fill:#ffb0a0;fill-opacity:1;fill-rule:nonzero;stroke:none;stroke-width:0.90218633"
         id="path300"
         inkscape:connector-curvature="0" />
    </g>
    <g
       id="g302"
       transform="matrix(1.4182543,0,0,-1.540036,137.22005,39.577178)"
       style="stroke-width:0.90218633">
      <path
         d="m 0,0 c 2.965,2.555 5.647,5.592 9.039,7.598 3.666,2.168 7.789,2.857 11.815,4.011 0.203,0.058 0.114,0.338 -0.084,0.308 C 11.819,10.59 5.927,6.614 -0.351,0.352 -0.581,0.123 -0.24,-0.207 0,0"
         style="fill:#006696;fill-opacity:1;fill-rule:nonzero;stroke:none;stroke-width:0.90218633"
         id="path304"
         inkscape:connector-curvature="0" />
    </g>
    <g
       id="g306"
       transform="matrix(1.4182543,0,0,-1.540036,149.72536,41.142159)"
       style="stroke-width:0.90218633">
      <path
         d="m 0,0 c 7.518,7.002 15.819,10.56 25.771,12.581 0.141,0.029 0.11,0.257 -0.034,0.251 C 15.909,12.417 6.37,7.37 -0.316,0.316 -0.515,0.107 -0.211,-0.196 0,0"
         style="fill:#006696;fill-opacity:1;fill-rule:nonzero;stroke:none;stroke-width:0.90218633"
         id="path308"
         inkscape:connector-curvature="0" />
    </g>
    <g
       id="g310"
       transform="matrix(1.4182543,0,0,-1.540036,164.5118,45.308734)"
       style="stroke-width:0.90218633">
      <path
         d="m 0,0 c 6.562,5.117 13.563,7.869 21.365,10.501 0.23,0.078 0.133,0.392 -0.098,0.356 C 13.328,9.637 5.837,5.308 -0.302,0.301 -0.516,0.126 -0.212,-0.166 0,0"
         style="fill:#006696;fill-opacity:1;fill-rule:nonzero;stroke:none;stroke-width:0.90218633"
         id="path312"
         inkscape:connector-curvature="0" />
    </g>
    <g
       id="g314"
       transform="matrix(1.4182543,0,0,-1.540036,187.2426,43.760536)"
       style="stroke-width:0.90218633">
      <path
         d="M 0,0 C 3.073,1.494 6.816,3.648 8.753,6.564 8.904,6.793 8.59,7.134 8.359,6.958 6.992,5.915 5.848,4.6 4.484,3.538 2.989,2.371 1.388,1.377 -0.297,0.509 -0.637,0.334 -0.339,-0.165 0,0"
         style="fill:#006696;fill-opacity:1;fill-rule:nonzero;stroke:none;stroke-width:0.90218633"
         id="path316"
         inkscape:connector-curvature="0" />
    </g>
    <g
       id="g318"
       transform="matrix(1.4182543,0,0,-1.540036,199.89059,52.736782)"
       style="stroke-width:0.90218633">
      <path
         d="M 0,0 C 2.326,1.442 4.896,4.024 5.215,6.887 5.245,7.157 4.84,7.24 4.719,7.021 4.091,5.889 3.708,4.674 2.951,3.601 2.07,2.353 1.004,1.303 -0.258,0.441 -0.526,0.258 -0.282,-0.175 0,0"
         style="fill:#006696;fill-opacity:1;fill-rule:nonzero;stroke:none;stroke-width:0.90218633"
         id="path320"
         inkscape:connector-curvature="0" />
    </g>
    <g
       id="g322"
       transform="matrix(1.4182543,0,0,-1.540036,205.99291,64.872732)"
       style="stroke-width:0.90218633">
      <path
         d="M 0,0 C 1.776,2.01 3.953,4.628 4.497,7.316 4.546,7.559 4.242,7.688 4.102,7.483 3.352,6.392 2.886,5.108 2.208,3.966 1.453,2.693 0.58,1.505 -0.377,0.376 -0.597,0.118 -0.229,-0.259 0,0"
         style="fill:#006696;fill-opacity:1;fill-rule:nonzero;stroke:none;stroke-width:0.90218633"
         id="path324"
         inkscape:connector-curvature="0" />
    </g>
    <g
       id="g326"
       transform="matrix(1.4182543,0,0,-1.540036,212.4569,79.240658)"
       style="stroke-width:0.90218633">
      <path
         d="M 0,0 C 1.44,2.006 2.677,4.471 2.882,6.968 2.901,7.216 2.52,7.256 2.456,7.026 1.777,4.558 1.092,2.358 -0.398,0.233 -0.569,-0.012 -0.171,-0.239 0,0"
         style="fill:#006696;fill-opacity:1;fill-rule:nonzero;stroke:none;stroke-width:0.90218633"
         id="path328"
         inkscape:connector-curvature="0" />
    </g>
    <g
       id="g330"
       transform="matrix(1.4182543,0,0,-1.540036,114.97615,119.50043)"
       style="stroke-width:0.90218633">
      <path
         d="m 0,0 c -0.025,-0.615 -0.05,-1.229 -0.058,-1.845 -0.008,-0.553 -0.075,-1.122 0.09,-1.656 0.083,-0.27 0.464,-0.27 0.548,0 0.163,0.532 0.097,1.105 0.089,1.656 C 0.661,-1.229 0.636,-0.615 0.611,0 0.595,0.393 0.017,0.393 0,0"
         style="fill:#006696;fill-opacity:1;fill-rule:nonzero;stroke:none;stroke-width:0.90218633"
         id="path332"
         inkscape:connector-curvature="0" />
    </g>
    <g
       id="g334"
       transform="matrix(1.4182543,0,0,-1.540036,114.93318,135.76631)"
       style="stroke-width:0.90218633">
      <path
         d="M 0,0 C -0.097,-1.246 -0.61,-2.218 -1.033,-3.364 -1.118,-3.595 -0.795,-3.753 -0.635,-3.595 0.279,-2.686 0.589,-1.241 0.667,0 0.694,0.431 0.033,0.425 0,0"
         style="fill:#006696;fill-opacity:1;fill-rule:nonzero;stroke:none;stroke-width:0.90218633"
         id="path336"
         inkscape:connector-curvature="0" />
    </g>
    <g
       id="g338"
       transform="matrix(1.4182543,0,0,-1.540036,124.44399,137.52441)"
       style="stroke-width:0.90218633">
      <path
         d="m 0,0 c -0.061,-1.003 -0.369,-2.236 -0.085,-3.218 0.079,-0.276 0.481,-0.277 0.561,0 C 0.759,-2.234 0.451,-1.003 0.391,0 0.375,0.251 0.015,0.251 0,0"
         style="fill:#006696;fill-opacity:1;fill-rule:nonzero;stroke:none;stroke-width:0.90218633"
         id="path340"
         inkscape:connector-curvature="0" />
    </g>
    <g
       id="g342"
       transform="matrix(1.4182543,0,0,-1.540036,154.13387,144.129)"
       style="stroke-width:0.90218633">
      <path
         d="M 0,0 C 0.103,-0.781 0.113,-1.689 0.516,-2.385 0.609,-2.546 0.891,-2.526 0.931,-2.331 1.094,-1.542 0.826,-0.683 0.676,0.091 0.604,0.467 -0.051,0.387 0,0"
         style="fill:#006696;fill-opacity:1;fill-rule:nonzero;stroke:none;stroke-width:0.90218633"
         id="path344"
         inkscape:connector-curvature="0" />
    </g>
    <g
       id="g346"
       transform="matrix(1.4182543,0,0,-1.540036,164.78737,138.84345)"
       style="stroke-width:0.90218633">
      <path
         d="m 0,0 c -0.004,-0.573 -0.105,-1.224 0.079,-1.772 0.071,-0.212 0.36,-0.212 0.432,0 C 0.695,-1.226 0.594,-0.572 0.59,0 0.587,0.379 0.003,0.38 0,0"
         style="fill:#006696;fill-opacity:1;fill-rule:nonzero;stroke:none;stroke-width:0.90218633"
         id="path348"
         inkscape:connector-curvature="0" />
    </g>
    <g
       id="g350"
       transform="matrix(1.4182543,0,0,-1.540036,168.7582,123.60617)"
       style="stroke-width:0.90218633">
      <path
         d="m 0,0 c 0.216,-0.783 0.423,-1.551 0.797,-2.277 0.095,-0.184 0.398,-0.099 0.39,0.105 -0.035,0.818 -0.235,1.59 -0.434,2.38 C 0.63,0.694 -0.135,0.486 0,0"
         style="fill:#006696;fill-opacity:1;fill-rule:nonzero;stroke:none;stroke-width:0.90218633"
         id="path352"
         inkscape:connector-curvature="0" />
    </g>
    <g
       id="g354"
       transform="matrix(1.4182543,0,0,-1.540036,181.258,125.93132)"
       style="stroke-width:0.90218633">
      <path
         d="m 0,0 c -0.42,-1.053 -0.697,-2.648 -0.186,-3.708 0.132,-0.273 0.584,-0.203 0.649,0.084 0.125,0.556 0.041,1.133 0.064,1.699 0.026,0.614 0.118,1.218 0.191,1.828 C 0.771,0.346 0.139,0.348 0,0"
         style="fill:#006696;fill-opacity:1;fill-rule:nonzero;stroke:none;stroke-width:0.90218633"
         id="path356"
         inkscape:connector-curvature="0" />
    </g>
    <g
       id="g358"
       transform="matrix(1.4182543,0,0,-1.540036,191.86994,120.81038)"
       style="stroke-width:0.90218633">
      <path
         d="m 0,0 c 0.048,-1.105 -0.063,-2.473 0.362,-3.51 0.108,-0.262 0.523,-0.33 0.603,0 C 1.231,-2.414 0.924,-1.105 0.802,0 0.747,0.501 -0.023,0.526 0,0"
         style="fill:#006696;fill-opacity:1;fill-rule:nonzero;stroke:none;stroke-width:0.90218633"
         id="path360"
         inkscape:connector-curvature="0" />
    </g>
    <g
       id="g362"
       transform="matrix(1.4182543,0,0,-1.540036,202.89332,109.56165)"
       style="stroke-width:0.90218633">
      <path
         d="M 0,0 C 0.382,-0.511 0.709,-1.021 0.863,-1.65 1.003,-2.221 0.937,-2.808 1.047,-3.385 1.104,-3.68 1.479,-3.657 1.624,-3.46 2.525,-2.237 1.619,-0.263 0.544,0.544 0.231,0.778 -0.233,0.312 0,0"
         style="fill:#006696;fill-opacity:1;fill-rule:nonzero;stroke:none;stroke-width:0.90218633"
         id="path364"
         inkscape:connector-curvature="0" />
    </g>
    <g
       id="g366"
       transform="matrix(1.4182543,0,0,-1.540036,102.84612,148.49948)"
       style="stroke-width:0.90218633">
      <path
         d="m 0,0 c -0.514,-0.612 -0.929,-1.275 -1.219,-2.022 -0.249,-0.639 -0.57,-1.514 -0.235,-2.161 0.131,-0.252 0.466,-0.203 0.607,0 0.325,0.466 0.285,1.145 0.451,1.688 0.21,0.689 0.552,1.328 0.993,1.897 C 0.922,-0.178 0.355,0.422 0,0"
         style="fill:#006696;fill-opacity:1;fill-rule:nonzero;stroke:none;stroke-width:0.90218633"
         id="path368"
         inkscape:connector-curvature="0" />
    </g>
    <g
       id="g370"
       transform="matrix(1.4182543,0,0,-1.540036,125.48002,120.83826)"
       style="stroke-width:0.90218633">
      <path
         d="m 0,0 c -0.179,-0.432 -0.39,-0.849 -0.631,-1.249 -0.212,-0.35 -0.481,-0.648 -0.575,-1.051 -0.083,-0.353 0.303,-0.697 0.636,-0.489 0.773,0.484 1.165,1.721 1.453,2.545 C 1.082,0.324 0.22,0.529 0,0"
         style="fill:#006696;fill-opacity:1;fill-rule:nonzero;stroke:none;stroke-width:0.90218633"
         id="path372"
         inkscape:connector-curvature="0" />
    </g>
    <g
       id="g374"
       transform="matrix(1.4182543,0,0,-1.540036,153.76967,115.58951)"
       style="stroke-width:0.90218633">
      <path
         d="M 0,0 C -0.058,-0.569 -0.255,-1.264 -0.056,-1.812 0.05,-2.103 0.486,-2.222 0.651,-1.905 0.94,-1.348 0.841,-0.615 0.859,0 0.876,0.562 0.055,0.539 0,0"
         style="fill:#006696;fill-opacity:1;fill-rule:nonzero;stroke:none;stroke-width:0.90218633"
         id="path376"
         inkscape:connector-curvature="0" />
    </g>
    <g
       id="g378"
       transform="matrix(1.4182543,0,0,-1.540036,160.82207,116.46857)"
       style="stroke-width:0.90218633">
      <path
         d="m 0,0 c -0.01,-0.57 -0.096,-1.153 0.137,-1.684 0.115,-0.262 0.577,-0.262 0.692,0 C 1.061,-1.155 0.976,-0.567 0.966,0 0.954,0.622 0.012,0.623 0,0"
         style="fill:#006696;fill-opacity:1;fill-rule:nonzero;stroke:none;stroke-width:0.90218633"
         id="path380"
         inkscape:connector-curvature="0" />
    </g>
    <g
       id="g382"
       transform="matrix(1.4182543,0,0,-1.540036,137.32812,117.40998)"
       style="stroke-width:0.90218633">
      <path
         d="m 0,0 c -0.447,-0.469 -1.076,-1.045 -0.979,-1.737 0.023,-0.168 0.265,-0.302 0.419,-0.238 0.567,0.235 0.799,0.898 1.178,1.358 C 0.968,-0.192 0.395,0.415 0,0"
         style="fill:#006696;fill-opacity:1;fill-rule:nonzero;stroke:none;stroke-width:0.90218633"
         id="path384"
         inkscape:connector-curvature="0" />
    </g>
    <g
       id="g386"
       transform="matrix(1.4182543,0,0,-1.540036,133.01663,127.5345)"
       style="stroke-width:0.90218633">
      <path
         d="m 0,0 c -0.301,-0.531 -0.851,-1.139 -0.713,-1.773 0.032,-0.144 0.216,-0.256 0.359,-0.203 0.61,0.229 0.815,0.994 1.102,1.539 C 1.006,0.055 0.276,0.487 0,0"
         style="fill:#006696;fill-opacity:1;fill-rule:nonzero;stroke:none;stroke-width:0.90218633"
         id="path388"
         inkscape:connector-curvature="0" />
    </g>
    <g
       id="g390"
       transform="matrix(1.4182543,0,0,-1.540036,147.01693,118.63493)"
       style="stroke-width:0.90218633">
      <path
         d="m 0,0 c -0.176,-0.276 -0.245,-0.57 -0.305,-0.89 -0.042,-0.226 0.036,-0.385 0.211,-0.52 0.119,-0.09 0.215,-0.07 0.355,-0.046 0.155,0.028 0.279,0.178 0.321,0.321 0.092,0.314 0.17,0.614 0.139,0.94 C 0.685,0.179 0.217,0.341 0,0"
         style="fill:#006696;fill-opacity:1;fill-rule:nonzero;stroke:none;stroke-width:0.90218633"
         id="path392"
         inkscape:connector-curvature="0" />
    </g>
    <g
       id="g394"
       transform="matrix(1.4182543,0,0,-1.540036,115.99758,150.66446)"
       style="stroke-width:0.90218633">
      <path
         d="m 0,0 c -0.256,-0.45 -0.551,-0.909 -0.674,-1.417 -0.077,-0.315 0.28,-0.481 0.51,-0.296 0.407,0.328 0.699,0.801 0.998,1.226 C 1.189,0.016 0.312,0.546 0,0"
         style="fill:#006696;fill-opacity:1;fill-rule:nonzero;stroke:none;stroke-width:0.90218633"
         id="path396"
         inkscape:connector-curvature="0" />
    </g>
    <g
       id="g398"
       transform="matrix(1.4182543,0,0,-1.540036,131.83097,150.58545)"
       style="stroke-width:0.90218633">
      <path
         d="m 0,0 c -0.391,-0.708 -1.065,-1.527 -1.036,-2.364 0.006,-0.173 0.2,-0.307 0.358,-0.206 0.705,0.449 0.998,1.449 1.359,2.172 C 0.905,0.052 0.247,0.447 0,0"
         style="fill:#006696;fill-opacity:1;fill-rule:nonzero;stroke:none;stroke-width:0.90218633"
         id="path400"
         inkscape:connector-curvature="0" />
    </g>
    <g
       id="g402"
       transform="matrix(1.4182543,0,0,-1.540036,145.81964,152.26379)"
       style="stroke-width:0.90218633">
      <path
         d="M 0,0 C -0.05,-0.514 -0.152,-1.013 -0.316,-1.503 -0.439,-1.87 -0.634,-2.175 -0.512,-2.558 -0.484,-2.646 -0.378,-2.729 -0.281,-2.689 0.558,-2.348 0.636,-0.787 0.696,0 0.73,0.449 0.043,0.44 0,0"
         style="fill:#006696;fill-opacity:1;fill-rule:nonzero;stroke:none;stroke-width:0.90218633"
         id="path404"
         inkscape:connector-curvature="0" />
    </g>
    <g
       id="g406"
       transform="matrix(1.4182543,0,0,-1.540036,138.85998,140.50746)"
       style="stroke-width:0.90218633">
      <path
         d="M 0,0 C -0.038,-0.745 -0.309,-1.437 -0.359,-2.171 -0.379,-2.472 0.011,-2.51 0.157,-2.311 0.616,-1.683 0.674,-0.755 0.703,0 0.72,0.453 0.022,0.45 0,0"
         style="fill:#006696;fill-opacity:1;fill-rule:nonzero;stroke:none;stroke-width:0.90218633"
         id="path408"
         inkscape:connector-curvature="0" />
    </g>
    <g
       id="g410"
       transform="matrix(1.4182543,0,0,-1.540036,173.88561,142.44837)"
       style="stroke-width:0.90218633">
      <path
         d="m 0,0 c -0.269,-0.643 -0.658,-1.534 -0.352,-2.207 0.109,-0.238 0.435,-0.18 0.558,0 0.203,0.296 0.183,0.582 0.25,0.931 0.07,0.365 0.182,0.717 0.311,1.065 C 0.948,0.275 0.192,0.46 0,0"
         style="fill:#006696;fill-opacity:1;fill-rule:nonzero;stroke:none;stroke-width:0.90218633"
         id="path412"
         inkscape:connector-curvature="0" />
    </g>
    <g
       id="g414"
       transform="matrix(1.4182543,0,0,-1.540036,189.16093,139.4533)"
       style="stroke-width:0.90218633">
      <path
         d="M 0,0 C -0.032,-0.456 -0.065,-0.912 -0.097,-1.367 -0.122,-1.746 -0.172,-1.975 0.116,-2.242 0.195,-2.315 0.347,-2.356 0.443,-2.284 1.029,-1.845 0.816,-0.668 0.845,0 0.868,0.547 0.038,0.538 0,0"
         style="fill:#006696;fill-opacity:1;fill-rule:nonzero;stroke:none;stroke-width:0.90218633"
         id="path416"
         inkscape:connector-curvature="0" />
    </g>
    <g
       id="g418"
       transform="matrix(1.4182543,0,0,-1.540036,200.51392,133.67063)"
       style="stroke-width:0.90218633">
      <path
         d="m 0,0 c -0.073,-0.529 -0.195,-1.037 -0.366,-1.542 -0.15,-0.44 -0.374,-0.817 -0.284,-1.288 0.04,-0.206 0.29,-0.268 0.454,-0.184 0.865,0.444 0.947,2.046 0.998,2.906 C 0.828,0.343 0.063,0.459 0,0"
         style="fill:#006696;fill-opacity:1;fill-rule:nonzero;stroke:none;stroke-width:0.90218633"
         id="path420"
         inkscape:connector-curvature="0" />
    </g>
    <g
       id="g422"
       transform="matrix(1.4182543,0,0,-1.540036,93.533306,166.90014)"
       style="stroke-width:0.90218633">
      <path
         d="m 0,0 c -0.295,-0.492 -0.578,-0.985 -0.843,-1.494 -0.227,-0.435 -0.465,-0.791 -0.367,-1.284 0.049,-0.248 0.345,-0.32 0.542,-0.221 0.46,0.23 0.603,0.749 0.805,1.196 0.221,0.491 0.422,0.985 0.616,1.486 C 0.925,0.128 0.233,0.388 0,0"
         style="fill:#006696;fill-opacity:1;fill-rule:nonzero;stroke:none;stroke-width:0.90218633"
         id="path424"
         inkscape:connector-curvature="0" />
    </g>
    <g
       id="g426"
       transform="matrix(1.4182543,0,0,-1.540036,107.76773,162.4425)"
       style="stroke-width:0.90218633">
      <path
         d="m 0,0 c 0.021,-0.659 -0.249,-1.297 -0.201,-1.94 0.023,-0.304 0.432,-0.559 0.667,-0.277 0.531,0.638 0.44,1.55 0.315,2.322 C 0.709,0.55 -0.015,0.442 0,0"
         style="fill:#006696;fill-opacity:1;fill-rule:nonzero;stroke:none;stroke-width:0.90218633"
         id="path428"
         inkscape:connector-curvature="0" />
    </g>
    <g
       id="g430"
       transform="matrix(1.4182543,0,0,-1.540036,121.63869,163.6351)"
       style="stroke-width:0.90218633">
      <path
         d="m 0,0 c -0.282,-0.653 -0.696,-1.357 -0.694,-2.085 0.001,-0.309 0.376,-0.451 0.593,-0.246 0.502,0.471 0.717,1.197 0.984,1.815 C 1.14,0.082 0.26,0.604 0,0"
         style="fill:#006696;fill-opacity:1;fill-rule:nonzero;stroke:none;stroke-width:0.90218633"
         id="path432"
         inkscape:connector-curvature="0" />
    </g>
    <g
       id="g434"
       transform="matrix(1.4182543,0,0,-1.540036,98.549789,177.71057)"
       style="stroke-width:0.90218633">
      <path
         d="m 0,0 c -0.122,-0.485 -0.276,-0.959 -0.493,-1.411 -0.176,-0.367 -0.431,-0.703 -0.414,-1.122 0.011,-0.268 0.275,-0.404 0.507,-0.291 0.78,0.376 1.046,1.837 1.194,2.605 C 0.893,0.295 0.131,0.521 0,0"
         style="fill:#006696;fill-opacity:1;fill-rule:nonzero;stroke:none;stroke-width:0.90218633"
         id="path436"
         inkscape:connector-curvature="0" />
    </g>
    <g
       id="g438"
       transform="matrix(1.4182543,0,0,-1.540036,114.20745,179.98752)"
       style="stroke-width:0.90218633">
      <path
         d="M 0,0 C -0.054,-0.647 -0.306,-1.383 -0.136,-2.02 -0.087,-2.2 0.185,-2.301 0.315,-2.139 0.771,-1.57 0.766,-0.701 0.831,0 0.879,0.53 0.044,0.531 0,0"
         style="fill:#006696;fill-opacity:1;fill-rule:nonzero;stroke:none;stroke-width:0.90218633"
         id="path440"
         inkscape:connector-curvature="0" />
    </g>
    <g
       id="g442"
       transform="matrix(1.4182543,0,0,-1.540036,102.81706,193.32438)"
       style="stroke-width:0.90218633">
      <path
         d="M 0,0 C 0,-0.401 -0.054,-0.782 -0.167,-1.168 -0.268,-1.51 -0.419,-1.796 -0.386,-2.161 -0.36,-2.457 -0.064,-2.67 0.217,-2.508 1.008,-2.05 1.045,-0.803 0.958,0 0.894,0.6 0,0.631 0,0"
         style="fill:#006696;fill-opacity:1;fill-rule:nonzero;stroke:none;stroke-width:0.90218633"
         id="path444"
         inkscape:connector-curvature="0" />
    </g>
    <g
       id="g446"
       transform="matrix(1.4182543,0,0,-1.540036,135.86562,166.30168)"
       style="stroke-width:0.90218633">
      <path
         d="m 0,0 c -0.001,-0.727 -0.163,-1.645 0.174,-2.309 0.094,-0.185 0.396,-0.185 0.49,0 C 1,-1.646 0.839,-0.725 0.838,0 0.837,0.539 0.001,0.54 0,0"
         style="fill:#006696;fill-opacity:1;fill-rule:nonzero;stroke:none;stroke-width:0.90218633"
         id="path448"
         inkscape:connector-curvature="0" />
    </g>
    <g
       id="g450"
       transform="matrix(1.4182543,0,0,-1.540036,126.32828,183.50218)"
       style="stroke-width:0.90218633">
      <path
         d="m 0,0 c 0.019,-0.426 -0.035,-0.817 -0.161,-1.225 -0.104,-0.339 -0.246,-0.6 -0.141,-0.951 0.053,-0.179 0.237,-0.284 0.419,-0.238 C 1.011,-2.191 1.081,-0.737 1.022,0 0.97,0.648 -0.03,0.664 0,0"
         style="fill:#006696;fill-opacity:1;fill-rule:nonzero;stroke:none;stroke-width:0.90218633"
         id="path452"
         inkscape:connector-curvature="0" />
    </g>
    <g
       id="g454"
       transform="matrix(1.4182543,0,0,-1.540036,120.46012,202.09689)"
       style="stroke-width:0.90218633">
      <path
         d="M 0,0 C -0.04,-0.557 -0.357,-1.617 0.144,-2.012 0.238,-2.086 0.355,-2.118 0.466,-2.053 1.058,-1.707 0.862,-0.596 0.895,0 0.926,0.577 0.042,0.57 0,0"
         style="fill:#006696;fill-opacity:1;fill-rule:nonzero;stroke:none;stroke-width:0.90218633"
         id="path456"
         inkscape:connector-curvature="0" />
    </g>
    <g
       id="g458"
       transform="matrix(1.4182543,0,0,-1.540036,140.85986,199.29063)"
       style="stroke-width:0.90218633">
      <path
         d="m 0,0 c -0.026,-0.596 -0.17,-1.242 0.092,-1.792 0.122,-0.256 0.553,-0.256 0.675,0 0.26,0.545 0.118,1.2 0.092,1.792 C 0.835,0.553 0.024,0.554 0,0"
         style="fill:#006696;fill-opacity:1;fill-rule:nonzero;stroke:none;stroke-width:0.90218633"
         id="path460"
         inkscape:connector-curvature="0" />
    </g>
    <g
       id="g462"
       transform="matrix(1.4182543,0,0,-1.540036,147.35774,177.12999)"
       style="stroke-width:0.90218633">
      <path
         d="m 0,0 c 0.163,-0.647 0.096,-1.297 0.225,-1.937 0.061,-0.307 0.508,-0.274 0.588,0 C 1.005,-1.282 0.78,-0.471 0.575,0.158 0.457,0.521 -0.095,0.375 0,0"
         style="fill:#006696;fill-opacity:1;fill-rule:nonzero;stroke:none;stroke-width:0.90218633"
         id="path464"
         inkscape:connector-curvature="0" />
    </g>
    <g
       id="g466"
       transform="matrix(1.4182543,0,0,-1.540036,159.40255,160.86335)"
       style="stroke-width:0.90218633">
      <path
         d="m 0,0 c -0.037,-0.7 -0.163,-1.453 0.033,-2.138 0.096,-0.335 0.514,-0.282 0.63,0 C 0.931,-1.48 0.883,-0.697 0.923,0 0.958,0.594 0.031,0.593 0,0"
         style="fill:#006696;fill-opacity:1;fill-rule:nonzero;stroke:none;stroke-width:0.90218633"
         id="path468"
         inkscape:connector-curvature="0" />
    </g>
    <g
       id="g470"
       transform="matrix(1.4182543,0,0,-1.540036,179.36051,153.66845)"
       style="stroke-width:0.90218633">
      <path
         d="M 0,0 C -0.01,-0.438 -0.037,-0.874 -0.071,-1.312 -0.102,-1.703 -0.184,-2.095 -0.069,-2.475 0.004,-2.718 0.321,-2.75 0.456,-2.543 0.885,-1.886 0.79,-0.757 0.796,0 0.8,0.513 0.012,0.512 0,0"
         style="fill:#006696;fill-opacity:1;fill-rule:nonzero;stroke:none;stroke-width:0.90218633"
         id="path472"
         inkscape:connector-curvature="0" />
    </g>
    <g
       id="g474"
       transform="matrix(1.4182543,0,0,-1.540036,169.77069,171.91742)"
       style="stroke-width:0.90218633">
      <path
         d="m 0,0 c -0.008,-0.65 -0.191,-1.531 0.152,-2.105 0.129,-0.216 0.447,-0.216 0.577,0 C 1.072,-1.529 0.888,-0.651 0.88,0 0.874,0.566 0.006,0.567 0,0"
         style="fill:#006696;fill-opacity:1;fill-rule:nonzero;stroke:none;stroke-width:0.90218633"
         id="path476"
         inkscape:connector-curvature="0" />
    </g>
    <g
       id="g478"
       transform="matrix(1.4182543,0,0,-1.540036,193.28819,156.48995)"
       style="stroke-width:0.90218633">
      <path
         d="m 0,0 c -0.151,-0.827 -0.547,-2.209 -0.083,-2.972 0.105,-0.172 0.349,-0.168 0.454,0 0.224,0.355 0.21,0.75 0.232,1.162 0.027,0.537 0.083,1.069 0.165,1.599 C 0.843,0.285 0.094,0.509 0,0"
         style="fill:#006696;fill-opacity:1;fill-rule:nonzero;stroke:none;stroke-width:0.90218633"
         id="path480"
         inkscape:connector-curvature="0" />
    </g>
    <g
       id="g482"
       transform="matrix(1.4182543,0,0,-1.540036,180.54745,178.23387)"
       style="stroke-width:0.90218633">
      <path
         d="M 0,0 C -0.042,-0.415 -0.107,-0.823 -0.205,-1.229 -0.29,-1.583 -0.44,-1.911 -0.403,-2.279 -0.369,-2.61 0.053,-2.878 0.318,-2.577 0.87,-1.953 0.896,-0.8 0.951,0 0.994,0.616 0.06,0.601 0,0"
         style="fill:#006696;fill-opacity:1;fill-rule:nonzero;stroke:none;stroke-width:0.90218633"
         id="path484"
         inkscape:connector-curvature="0" />
    </g>
    <g
       id="g486"
       transform="matrix(1.4182543,0,0,-1.540036,180.54745,178.23387)"
       style="stroke-width:0.90218633">
      <path
         d="m 0,0 c -0.156,-0.46 -0.304,-0.922 -0.437,-1.388 -0.119,-0.415 -0.257,-0.782 -0.083,-1.198 0.097,-0.231 0.356,-0.331 0.558,-0.147 0.325,0.296 0.368,0.666 0.461,1.087 0.105,0.474 0.223,0.944 0.35,1.412 C 0.998,0.317 0.181,0.533 0,0"
         style="fill:#006696;fill-opacity:1;fill-rule:nonzero;stroke:none;stroke-width:0.90218633"
         id="path488"
         inkscape:connector-curvature="0" />
    </g>
    <g
       id="g490"
       transform="matrix(1.4182543,0,0,-1.540036,212.37095,107.95694)"
       style="stroke-width:0.90218633">
      <path
         d="M 0,0 C 0.854,0.302 1.58,0.73 2.225,1.372 2.689,1.834 3.529,2.689 3.331,3.409 3.302,3.516 3.176,3.599 3.065,3.56 2.455,3.345 2.109,2.509 1.688,2.048 1.14,1.447 0.487,0.902 -0.194,0.46 -0.422,0.313 -0.282,-0.1 0,0"
         style="fill:#006696;fill-opacity:1;fill-rule:nonzero;stroke:none;stroke-width:0.90218633"
         id="path492"
         inkscape:connector-curvature="0" />
    </g>
    <g
       id="g494"
       transform="matrix(1.4182543,0,0,-1.540036,209.30865,21.104288)"
       style="stroke-width:0.90218633">
      <path
         d="M 0,0 C 0.921,0.681 1.878,1.301 2.923,1.776 4.075,2.301 5.321,2.498 6.48,2.971 6.79,3.098 6.757,3.54 6.4,3.564 3.98,3.731 1.334,2.035 -0.284,0.368 -0.462,0.185 -0.222,-0.164 0,0"
         style="fill:#006696;fill-opacity:1;fill-rule:nonzero;stroke:none;stroke-width:0.90218633"
         id="path496"
         inkscape:connector-curvature="0" />
    </g>
    <g
       id="g498"
       transform="matrix(1.4182543,0,0,-1.540036,209.82249,24.650683)"
       style="stroke-width:0.90218633">
      <path
         d="M 0,0 C 3.067,0.215 7.015,0.54 9.594,2.338 9.804,2.484 9.668,2.769 9.427,2.734 7.945,2.521 6.521,1.87 5.067,1.5 3.399,1.074 1.715,0.809 0,0.653 -0.413,0.615 -0.423,-0.03 0,0"
         style="fill:#006696;fill-opacity:1;fill-rule:nonzero;stroke:none;stroke-width:0.90218633"
         id="path500"
         inkscape:connector-curvature="0" />
    </g>
    <g
       id="g502"
       transform="matrix(1.4182543,0,0,-1.540036,210.97624,29.300059)"
       style="stroke-width:0.90218633">
      <path
         d="M 0,0 C 4.369,-0.717 9.402,-0.748 13.457,1.272 13.764,1.425 13.538,1.857 13.235,1.797 8.773,0.919 4.778,0.05 0.192,0.699 -0.261,0.763 -0.464,0.076 0,0"
         style="fill:#006696;fill-opacity:1;fill-rule:nonzero;stroke:none;stroke-width:0.90218633"
         id="path504"
         inkscape:connector-curvature="0" />
    </g>
    <g
       id="g506"
       transform="matrix(1.4182543,0,0,-1.540036,221.76419,204.91839)"
       style="stroke-width:0.90218633">
      <path
         d="m 0,0 -19.244,-8.488 6.824,-20.656 23.885,-0.237 c 0,0 -5.521,18.846 -11.465,29.381"
         style="fill:#ffccc3;fill-opacity:1;fill-rule:nonzero;stroke:none;stroke-width:0.90218633"
         id="path508"
         inkscape:connector-curvature="0" />
    </g>
    <g
       transform="matrix(1.4182543,0,0,-1.540036,-204.47667,535.8441)"
       id="g1096"
       style="stroke-width:0.90218633">
      <g
         id="g1098"
         style="stroke-width:0.90218633" />
      <g
         id="g1110"
         style="stroke-width:0.90218633">
        <g
           clip-path="url(#clipPath1102-3-4)"
           id="g1108"
           style="opacity:0.22000098;stroke-width:0.90218633">
          <g
             transform="translate(214.0371,275.1694)"
             id="g1106"
             style="stroke-width:0.90218633">
            <path
               d="m 0,0 c -0.377,-0.031 -0.664,-0.016 -0.955,-0.273 -0.152,-0.134 -0.152,-0.421 0,-0.555 C -0.664,-1.086 -0.377,-1.07 0,-1.102 0.708,-1.16 0.71,0.059 0,0"
               style="fill:#303030;fill-opacity:1;fill-rule:nonzero;stroke:none;stroke-width:0.90218633"
               id="path1104"
               inkscape:connector-curvature="0" />
          </g>
        </g>
      </g>
    </g>
    <g
       transform="matrix(1.4182543,0,0,-1.540036,-204.47667,535.8441)"
       id="g1112"
       style="stroke-width:0.90218633">
      <g
         id="g1114"
         style="stroke-width:0.90218633" />
      <g
         id="g1126"
         style="stroke-width:0.90218633">
        <g
           clip-path="url(#clipPath1118-0-1)"
           id="g1124"
           style="opacity:0.22000098;stroke-width:0.90218633">
          <g
             transform="translate(208.9531,268.6387)"
             id="g1122"
             style="stroke-width:0.90218633">
            <path
               d="M 0,0 C 0.716,0 0.717,1.113 0,1.113 -0.716,1.113 -0.718,0 0,0"
               style="fill:#303030;fill-opacity:1;fill-rule:nonzero;stroke:none;stroke-width:0.90218633"
               id="path1120"
               inkscape:connector-curvature="0" />
          </g>
        </g>
      </g>
    </g>
    <g
       transform="matrix(1.4182543,0,0,-1.540036,-204.47667,535.8441)"
       id="g1208"
       style="stroke-width:0.90218633">
      <g
         id="g1210"
         style="stroke-width:0.90218633" />
      <g
         id="g1222"
         style="stroke-width:0.90218633">
        <g
           clip-path="url(#clipPath1214-9-9)"
           id="g1220"
           style="opacity:0.22000098;stroke-width:0.90218633">
          <g
             transform="translate(284.5391,289.0283)"
             id="g1218"
             style="stroke-width:0.90218633">
            <path
               d="M 0,0 C 0.648,0 0.649,1.008 0,1.008 -0.648,1.008 -0.65,0 0,0"
               style="fill:#303030;fill-opacity:1;fill-rule:nonzero;stroke:none;stroke-width:0.90218633"
               id="path1216"
               inkscape:connector-curvature="0" />
          </g>
        </g>
      </g>
    </g>
    <g
       transform="matrix(1.4182543,0,0,-1.540036,-204.47667,535.8441)"
       id="g1224"
       style="stroke-width:0.90218633">
      <g
         id="g1226"
         style="stroke-width:0.90218633" />
      <g
         id="g1238"
         style="stroke-width:0.90218633">
        <g
           clip-path="url(#clipPath1230-6-1)"
           id="g1236"
           style="opacity:0.22000098;stroke-width:0.90218633">
          <g
             transform="translate(282.166,294.4399)"
             id="g1234"
             style="stroke-width:0.90218633">
            <path
               d="M 0,0 C 0.663,0 0.665,1.031 0,1.031 -0.663,1.031 -0.665,0 0,0"
               style="fill:#303030;fill-opacity:1;fill-rule:nonzero;stroke:none;stroke-width:0.90218633"
               id="path1232"
               inkscape:connector-curvature="0" />
          </g>
        </g>
      </g>
    </g>
    <g
       transform="matrix(1.4182543,0,0,-1.540036,-204.47667,535.8441)"
       id="g1240"
       style="stroke-width:0.90218633">
      <g
         id="g1242"
         style="stroke-width:0.90218633" />
      <g
         id="g1254"
         style="stroke-width:0.90218633">
        <g
           clip-path="url(#clipPath1246-3-3)"
           id="g1252"
           style="opacity:0.22000098;stroke-width:0.90218633">
          <g
             transform="translate(297.4189,201.2119)"
             id="g1250"
             style="stroke-width:0.90218633">
            <path
               d="M 0,0 C 0.686,0 0.687,1.066 0,1.066 -0.687,1.066 -0.687,0 0,0"
               style="fill:#303030;fill-opacity:1;fill-rule:nonzero;stroke:none;stroke-width:0.90218633"
               id="path1248"
               inkscape:connector-curvature="0" />
          </g>
        </g>
      </g>
    </g>
    <g
       transform="matrix(1.4182543,0,0,-1.540036,-204.47667,535.8441)"
       id="g1256"
       style="stroke-width:0.90218633">
      <g
         id="g1258"
         style="stroke-width:0.90218633" />
      <g
         id="g1270"
         style="stroke-width:0.90218633">
        <g
           clip-path="url(#clipPath1262-7-9)"
           id="g1268"
           style="opacity:0.22000098;stroke-width:0.90218633">
          <g
             transform="translate(302.1641,196.5127)"
             id="g1266"
             style="stroke-width:0.90218633">
            <path
               d="M 0,0 C 0.626,0 0.627,0.973 0,0.973 -0.626,0.973 -0.627,0 0,0"
               style="fill:#303030;fill-opacity:1;fill-rule:nonzero;stroke:none;stroke-width:0.90218633"
               id="path1264"
               inkscape:connector-curvature="0" />
          </g>
        </g>
      </g>
    </g>
    <g
       transform="matrix(1.4182543,0,0,-1.540036,-204.47667,535.8441)"
       id="g1272"
       style="stroke-width:0.90218633">
      <g
         id="g1274"
         style="stroke-width:0.90218633" />
      <g
         id="g1286"
         style="stroke-width:0.90218633">
        <g
           clip-path="url(#clipPath1278-3-2)"
           id="g1284"
           style="opacity:0.22000098;stroke-width:0.90218633">
          <g
             transform="translate(300.1299,205.4482)"
             id="g1282"
             style="stroke-width:0.90218633">
            <path
               d="M 0,0 C 0.032,0 0.032,0.05 0,0.05 -0.032,0.05 -0.032,0 0,0"
               style="fill:#303030;fill-opacity:1;fill-rule:nonzero;stroke:none;stroke-width:0.90218633"
               id="path1280"
               inkscape:connector-curvature="0" />
          </g>
        </g>
      </g>
    </g>
  </g>
</svg>
